<?xml version="1.0" encoding="utf-8"?>
<?xml-stylesheet type="text/xsl" href="rss1.xsl"?>
<rss version="2.0" xmlns:atom="http://www.w3.org/2005/Atom" xmlns:content="http://purl.org/rss/1.0/modules/content/" xmlns:dc="http://purl.org/dc/elements/1.1/" xmlns:media="http://search.yahoo.com/mrss/">
<channel>
 <title>Getty</title>
 <link>http://www.gettyimg.com/</link>
 <atom:link href="http://www.gettyimg.com/" rel="self" type="application/rss+xml" />

 
                <item>
                <title><![CDATA[【Cinema Center】MOVIE - BIONICLE: Mask of Light - The Movie (2003) (DVD9 NTSC R1)]]></title>
                <link><![CDATA[https://sharemania.us/threads/bionicle-mask-of-light-the-movie-2003-dvd9-ntsc-r1.233532/]]></link>
                <description><![CDATA[<article>
<blockquote class="messageText SelectQuoteContainer ugc baseHtml">
<div class="bbCodeBlock bbCodeCode">
<div class="type">Code:</div>
<pre>General
Complete name                            : BIONICLE_MASK_OF_LIGHT.iso
Format                                   : ISO 9660 / DVD Video
Format profile                           : Program
File size                                : 5.34 GiB
Duration                                 : 1 h 14 min
Overall bit rate mode                    : Variable
Overall bit rate                         : 10.3 Mb/s
Frame rate                               : 29.970 FPS
Movie name                               : BIONICLE_MASK_OF_LIGHT
Encoded date                             : 2003-08-12 17:23:53.00+56:00

Video
ID                                       : 224 (0xE0)
Format                                   : MPEG Video
Format version                           : Version 2
Format profile                           : Main@Main
Format settings                          : CustomMatrix / BVOP
Format settings, BVOP                    : Yes
Format settings, Matrix                  : Custom
Format settings, picture structure       : Frame
Duration                                 : 1 h 14 min
Bit rate mode                            : Variable
Bit rate                                 : 8 471 kb/s
Maximum bit rate                         : 9 800 kb/s
Width                                    : 720 pixels
Height                                   : 480 pixels
Display aspect ratio                     : 16:9
Frame rate                               : 29.970 (29970/1000) FPS
Original frame rate                      : 29.970 (30000/1001) FPS
Standard                                 : NTSC
Color space                              : YUV
Chroma subsampling                       : 4:2:0
Bit depth                                : 8 bits
Scan type                                : Interlaced
Scan order                               : Top Field First
Compression mode                         : Lossy
Bits/(Pixel*Frame)                       : 0.818
Stream size                              : 4.39 GiB (82%)
Source                                   : VIDEO_TS/VTS_01_0.IFO

Audio #1
ID                                       : 189 (0xBD)-128 (0x80)
Format                                   : AC-3
Format/Info                              : Audio Coding 3
Commercial name                          : Dolby Digital
Muxing mode                              : DVD-Video
Duration                                 : 1 h 14 min
Bit rate mode                            : Constant
Bit rate                                 : 448 kb/s
Channel(s)                               : 6 channels
Channel layout                           : L R C LFE Ls Rs
Sampling rate                            : 48.0 kHz
Frame rate                               : 31.250 FPS (1536 SPF)
Compression mode                         : Lossy
Stream size                              : 238 MiB (4%)
Language                                 : English
Service kind                             : Complete Main
Source                                   : VIDEO_TS/VTS_01_0.IFO

Audio #2
ID                                       : 189 (0xBD)-130 (0x82)
Format                                   : AC-3
Format/Info                              : Audio Coding 3
Commercial name                          : Dolby Digital
Muxing mode                              : DVD-Video
Duration                                 : 1 h 14 min
Bit rate mode                            : Constant
Bit rate                                 : 192 kb/s
Channel(s)                               : 6 channels
Channel(s)_Original                      : 2 channels
ChannelLayout_Original                   : L R
Sampling rate                            : 48.0 kHz
Frame rate                               : 31.250 FPS (1536 SPF)
Compression mode                         : Lossy
Stream size                              : 102 MiB (2%)
Language                                 : English
Service kind                             : Complete Main
Source                                   : VIDEO_TS/VTS_01_0.IFO

Audio #3
ID                                       : 189 (0xBD)-137 (0x89)
Format                                   : DTS
Format/Info                              : Digital Theater Systems
Muxing mode                              : DVD-Video
Duration                                 : 1 h 14 min
Bit rate mode                            : Constant
Bit rate                                 : 754 kb/s
Channel(s)                               : 2 channels
Channel(s)_Original                      : 6 channels
ChannelLayout_Original                   : C L R Ls Rs LFE
Sampling rate                            : 48.0 kHz
Frame rate                               : 93.750 FPS (512 SPF)
Bit depth                                : 24 bits
Compression mode                         : Lossy
Stream size                              : 401 MiB (7%)
Language                                 : English
Language, more info                      : Director's comments
Source                                   : VIDEO_TS/VTS_01_0.IFO

Text #1
ID                                       : 189 (0xBD)-32 (0x20)
Format                                   : RLE
Format/Info                              : Run-length encoding
Muxing mode                              : DVD-Video
Duration                                 : 1 h 14 min
Bit depth                                : 2 bits
Delay relative to video                  : 1 s 868 ms
Language                                 : English
Source                                   : VIDEO_TS/VTS_01_0.IFO

Text #2
ID                                       : 189 (0xBD)-33 (0x21)
Format                                   : RLE
Format/Info                              : Run-length encoding
Duration                                 : 1 h 14 min
Bit depth                                : 2 bits
Language                                 : English
Source                                   : VIDEO_TS/VTS_01_0.IFO

Menu
Duration                                 : 1 h 14 min
00:00:00.000                             : Chapter 1
00:06:44.533                             : Chapter 2
00:13:48.267                             : Chapter 3
00:18:26.867                             : Chapter 4
00:24:27.367                             : Chapter 5
00:32:26.667                             : Chapter 6
00:37:17.600                             : Chapter 7
00:43:29.867                             : Chapter 8
00:50:35.200                             : Chapter 9
00:54:46.233                             : Chapter 10
01:01:38.200                             : Chapter 11
01:06:29.467                             : Chapter 12
01:14:13.533                             : Chapter 13
List (Audio)                             : 0 / 1 / 2
List (Subtitles 4/3)                     : 0 / 0
List (Subtitles Wide)                    : 0 / 1
List (Subtitles Letterbox)               : 0 / 
List (Subtitles Pan&amp;Scan)                : 0 / 0
Source                                   : VIDEO_TS/VTS_01_0.IFO
</pre>
</div>
<div class="bbCodeBlock bbCodeVfcHH HiddenContent">
<div class="attribution type">Hidden Content:</div>
<blockquote>You must reply before you can see the hidden data contained here.</blockquote>
</div>
<div class="messageTextEndMarker">&nbsp;</div>
</blockquote>
</article>]]></description>
                <author><![CDATA[Austin Zimmermann]]></author>
                </item>

                
                <item>
                <title><![CDATA[【Cinema Center】MOVIE - BIONICLE 2: Legends of Metru Nui (2004) (DVD9 NTSC R1)]]></title>
                <link><![CDATA[https://sharemania.us/threads/bionicle-2-legends-of-metru-nui-2004-dvd9-ntsc-r1.233533/]]></link>
                <description><![CDATA[<article>
<blockquote class="messageText SelectQuoteContainer ugc baseHtml">
<div class="bbCodeBlock bbCodeCode">
<div class="type">Code:</div>
<pre>General
Complete name                            : BIONICLE_2.iso
Format                                   : ISO 9660 / DVD Video
Format profile                           : Program
File size                                : 5.62 GiB
Duration                                 : 1 h 15 min
Overall bit rate mode                    : Variable
Overall bit rate                         : 10.7 Mb/s
Frame rate                               : 29.970 FPS
Movie name                               : BIONICLE_2
Encoded date                             : 2004-08-16 17:57:16.00+56:00

Video
ID                                       : 224 (0xE0)
Format                                   : MPEG Video
Format version                           : Version 2
Format profile                           : Main@Main
Format settings                          : CustomMatrix / BVOP
Format settings, BVOP                    : Yes
Format settings, Matrix                  : Custom
Format settings, picture structure       : Frame
Duration                                 : 1 h 15 min
Bit rate mode                            : Variable
Bit rate                                 : 8 676 kb/s
Maximum bit rate                         : 9 800 kb/s
Width                                    : 720 pixels
Height                                   : 480 pixels
Display aspect ratio                     : 16:9
Frame rate                               : 29.970 (29970/1000) FPS
Original frame rate                      : 29.970 (30000/1001) FPS
Standard                                 : NTSC
Color space                              : YUV
Chroma subsampling                       : 4:2:0
Bit depth                                : 8 bits
Scan type                                : Interlaced
Scan order                               : Top Field First
Compression mode                         : Lossy
Bits/(Pixel*Frame)                       : 0.838
Stream size                              : 4.55 GiB (81%)
Source                                   : VIDEO_TS/VTS_01_0.IFO

Audio #1
ID                                       : 189 (0xBD)-128 (0x80)
Format                                   : AC-3
Format/Info                              : Audio Coding 3
Commercial name                          : Dolby Digital
Muxing mode                              : DVD-Video
Duration                                 : 1 h 15 min
Bit rate mode                            : Constant
Bit rate                                 : 448 kb/s
Channel(s)                               : 6 channels
Channel layout                           : L R C LFE Ls Rs
Sampling rate                            : 48.0 kHz
Frame rate                               : 31.250 FPS (1536 SPF)
Compression mode                         : Lossy
Stream size                              : 241 MiB (4%)
Language                                 : English
Service kind                             : Complete Main
Source                                   : VIDEO_TS/VTS_01_0.IFO

Audio #2
ID                                       : 189 (0xBD)-130 (0x82)
Format                                   : AC-3
Format/Info                              : Audio Coding 3
Commercial name                          : Dolby Digital
Muxing mode                              : DVD-Video
Duration                                 : 1 h 15 min
Bit rate mode                            : Constant
Bit rate                                 : 384 kb/s
Channel(s)                               : 6 channels
Channel layout                           : L R C LFE Ls Rs
Sampling rate                            : 48.0 kHz
Frame rate                               : 31.250 FPS (1536 SPF)
Compression mode                         : Lossy
Stream size                              : 206 MiB (4%)
Language                                 : English
Service kind                             : Complete Main
Source                                   : VIDEO_TS/VTS_01_0.IFO

Audio #3
ID                                       : 189 (0xBD)-137 (0x89)
Format                                   : DTS
Format/Info                              : Digital Theater Systems
Muxing mode                              : DVD-Video
Duration                                 : 1 h 15 min
Bit rate mode                            : Constant
Bit rate                                 : 754 kb/s
Channel(s)                               : 6 channels
Channel layout                           : C L R Ls Rs LFE
Sampling rate                            : 48.0 kHz
Frame rate                               : 93.750 FPS (512 SPF)
Bit depth                                : 16 bits
Compression mode                         : Lossy
Stream size                              : 405 MiB (7%)
Language                                 : French
Source                                   : VIDEO_TS/VTS_01_0.IFO

Text
ID                                       : 189 (0xBD)-32 (0x20)
Format                                   : RLE
Format/Info                              : Run-length encoding
Duration                                 : 1 h 15 min
Bit depth                                : 2 bits
Language                                 : English
Source                                   : VIDEO_TS/VTS_01_0.IFO

Menu
Duration                                 : 1 h 15 min
00:00:00.000                             : Chapter 1
00:10:36.067                             : Chapter 2
00:15:17.667                             : Chapter 3
00:23:04.633                             : Chapter 4
00:28:57.300                             : Chapter 5
00:33:39.933                             : Chapter 6
00:40:28.967                             : Chapter 7
00:45:15.267                             : Chapter 8
00:49:12.367                             : Chapter 9
00:54:58.500                             : Chapter 10
01:05:48.833                             : Chapter 11
01:15:06.633                             : Chapter 12
List (Audio)                             : 0 / 1 / 2
List (Subtitles 4/3)                     : 0
List (Subtitles Wide)                    : 0
List (Subtitles Letterbox)               : 0
List (Subtitles Pan&amp;Scan)                : 0
Source                                   : VIDEO_TS/VTS_01_0.IFO
</pre>
</div>
<div class="bbCodeBlock bbCodeVfcHH HiddenContent">
<div class="attribution type">Hidden Content:</div>
<blockquote>You must reply before you can see the hidden data contained here.</blockquote>
</div>
<div class="messageTextEndMarker">&nbsp;</div>
</blockquote>
</article>]]></description>
                <author><![CDATA[Austin Zimmermann]]></author>
                </item>

                </channel></rss>